<svg width="19" height="18" viewBox="0 0 19 18" fill="none" xmlns="http://www.w3.org/2000/svg">
<path d="M15.3069 14.4C14.2821 14.4 13.4604 15.201 13.4604 16.2C13.4604 16.6774 13.6549 17.1352 14.0012 17.4728C14.3475 17.8104 14.8172 18 15.3069 18C15.7966 18 16.2663 17.8104 16.6126 17.4728C16.9589 17.1352 17.1535 16.6774 17.1535 16.2C17.1535 15.7226 16.9589 15.2648 16.6126 14.9272C16.2663 14.5896 15.7966 14.4 15.3069 14.4ZM0.9 0C0.402944 0 0 0.402944 0 0.9C0 1.39706 0.402944 1.8 0.9 1.8H2.06829C2.25963 1.8 2.43418 1.90919 2.5179 2.08124L5.63563 8.48875C5.67895 8.57778 5.67555 8.68244 5.62656 8.76847L4.44919 10.836C4.3107 11.088 4.2276 11.385 4.2276 11.7C4.2276 12.1774 4.42215 12.6352 4.76845 12.9728C5.11474 13.3104 5.58442 13.5 6.07415 13.5H16.788C17.285 13.5 17.688 13.0971 17.688 12.6C17.688 12.1029 17.285 11.7 16.788 11.7H6.46193C6.40071 11.7 6.342 11.6763 6.29872 11.6341C6.25543 11.5919 6.23111 11.5347 6.23111 11.475C6.23111 11.43 6.24034 11.394 6.25881 11.367L7.00358 10.0521C7.05684 9.95812 7.15655 9.9 7.26461 9.9H13.9682C14.6606 9.9 15.27 9.522 15.5839 8.973L18.8892 3.15C18.9538 3.006 19 2.853 19 2.7C19 2.4613 18.9027 2.23239 18.7296 2.0636C18.5564 1.89482 18.3216 1.8 18.0767 1.8H4.42149L3.82636 0.565692C3.65961 0.219837 3.30956 0 2.9256 0H0.9ZM6.07415 14.4C5.04932 14.4 4.2276 15.201 4.2276 16.2C4.2276 16.6774 4.42215 17.1352 4.76845 17.4728C5.11474 17.8104 5.58442 18 6.07415 18C6.56389 18 7.03357 17.8104 7.37986 17.4728C7.72616 17.1352 7.9207 16.6774 7.9207 16.2C7.9207 15.7226 7.72616 15.2648 7.37986 14.9272C7.03357 14.5896 6.56389 14.4 6.07415 14.4Z" fill="white"/>
</svg>
