<svg width="60" height="48" viewBox="0 0 60 48" fill="none" xmlns="http://www.w3.org/2000/svg">
<path d="M25.6875 28.5H16.2188C7.21875 28.5 0 35.8125 0 44.8125C0 46.5938 1.40625 48 3.1875 48H38.7188C40.5 48 42 46.5938 42 44.8125C42 35.8125 34.6875 28.5 25.6875 28.5ZM21 24C27.5625 24 33 18.6562 33 12C33 5.4375 27.5625 0 21 0C14.3438 0 9 5.4375 9 12C9 18.6562 14.3438 24 21 24ZM59.25 12.6562C58.3125 11.8125 56.9062 11.8125 56.0625 12.75L47.9062 21.5625L44.25 18C43.4062 17.0625 42 17.0625 41.1562 18C40.2188 18.8438 40.2188 20.25 41.1562 21.0938L46.4062 26.3438C46.7812 26.8125 47.3438 27 48 27C48.5625 27 49.2188 26.8125 49.5938 26.3438L59.3438 15.8438C60.1875 14.9062 60.1875 13.5 59.25 12.6562Z" fill="#fff"/>
</svg>
