<svg width="76" height="12" viewBox="0 0 76 12" fill="none" xmlns="http://www.w3.org/2000/svg">
<path d="M9.13354 11.8175L5.86505 9.74706L2.60288 11.8175C2.36264 11.9701 2.06551 11.7445 2.12873 11.4591L2.99485 7.55722L0.111998 4.93605C-0.102951 4.74361 0.0108457 4.37864 0.289015 4.35209L4.08856 4.01366L5.57424 0.337385C5.68171 0.0653135 6.04839 0.0653135 6.15586 0.337385L7.64154 4.01366L11.4411 4.35209C11.7256 4.37864 11.8331 4.74361 11.6244 4.93605L8.74158 7.55722L9.6077 11.4591C9.67092 11.7445 9.37378 11.9701 9.13354 11.8175Z" fill="#FCD000"/>
<path d="M25.1335 11.8175L21.8651 9.74706L18.6029 11.8175C18.3626 11.9701 18.0655 11.7445 18.1287 11.4591L18.9948 7.55722L16.112 4.93605C15.897 4.74361 16.0108 4.37864 16.289 4.35209L20.0886 4.01366L21.5742 0.337385C21.6817 0.0653135 22.0484 0.0653135 22.1559 0.337385L23.6415 4.01366L27.4411 4.35209C27.7256 4.37864 27.8331 4.74361 27.6244 4.93605L24.7416 7.55722L25.6077 11.4591C25.6709 11.7445 25.3738 11.9701 25.1335 11.8175Z" fill="#FCD000"/>
<path d="M41.1335 11.8175L37.8651 9.74706L34.6029 11.8175C34.3626 11.9701 34.0655 11.7445 34.1287 11.4591L34.9948 7.55722L32.112 4.93605C31.897 4.74361 32.0108 4.37864 32.289 4.35209L36.0886 4.01366L37.5742 0.337385C37.6817 0.0653135 38.0484 0.0653135 38.1559 0.337385L39.6415 4.01366L43.4411 4.35209C43.7256 4.37864 43.8331 4.74361 43.6244 4.93605L40.7416 7.55722L41.6077 11.4591C41.6709 11.7445 41.3738 11.9701 41.1335 11.8175Z" fill="#FCD000"/>
<path d="M57.1335 11.8175L53.8651 9.74706L50.6029 11.8175C50.3626 11.9701 50.0655 11.7445 50.1287 11.4591L50.9948 7.55722L48.112 4.93605C47.897 4.74361 48.0108 4.37864 48.289 4.35209L52.0886 4.01366L53.5742 0.337385C53.6817 0.0653135 54.0484 0.0653135 54.1559 0.337385L55.6415 4.01366L59.4411 4.35209C59.7256 4.37864 59.8331 4.74361 59.6244 4.93605L56.7416 7.55722L57.6077 11.4591C57.6709 11.7445 57.3738 11.9701 57.1335 11.8175Z" fill="#FCD000"/>
<path d="M73.1335 11.8175L69.8651 9.74706L66.6029 11.8175C66.3626 11.9701 66.0655 11.7445 66.1287 11.4591L66.9948 7.55722L64.112 4.93605C63.897 4.74361 64.0108 4.37864 64.289 4.35209L68.0886 4.01366L69.5742 0.337385C69.6817 0.0653135 70.0484 0.0653135 70.1559 0.337385L71.6415 4.01366L75.4411 4.35209C75.7256 4.37864 75.8331 4.74361 75.6244 4.93605L72.7416 7.55722L73.6077 11.4591C73.6709 11.7445 73.3738 11.9701 73.1335 11.8175Z" fill="#FCD000"/>
</svg>
