<svg width="24" height="15" viewBox="0 0 24 15" fill="none" xmlns="http://www.w3.org/2000/svg">
<path d="M0.698243 8.80072L1.28483 8.495C1.28483 8.495 1.3889 7.91187 1.45324 7.63446C1.55731 7.17588 1.81276 6.58521 1.81276 6.58521L1.23942 6.63805C1.23942 6.63805 1.05209 6.95697 0.879896 7.6722C0.696351 8.44405 0.698243 8.80072 0.698243 8.80072Z" fill="#D5CCC2"/>
<path d="M4.09262 9.35562C4.01504 9.38204 0.781283 10.369 0.781283 10.369C0.781283 10.369 0.563681 9.36695 0.762361 8.34789C0.972394 7.26845 1.24676 6.62682 1.24676 6.62682C1.24676 6.62682 1.54573 5.90027 2.47101 5.30393C3.2487 4.80195 5.03114 4.26978 5.44175 4.00935C5.71422 3.83762 6.17403 3.52813 6.87225 2.76195C7.57046 1.99577 8.12298 1.19374 9.35669 0.623819C10.5904 0.053902 11.2337 0.142598 12.5734 0.0539019C13.9131 -0.0347937 15.3606 0.00106194 16.4524 0.0539019C17.5442 0.106742 18.3995 0.606835 18.6871 0.784226C18.9728 0.961618 19.6881 1.56928 20.0627 1.95992C20.4374 2.35244 20.8839 2.93934 21.2245 3.22619C21.5632 3.51114 22.1006 3.85083 22.5642 4.11692C23.0297 4.38489 23.3154 4.61512 23.4043 4.84724C23.4933 5.07936 23.4914 5.09068 23.4914 5.09068L23.1716 8.39318L4.09262 9.35562Z" fill="#F92612"/>
<path d="M0.78125 10.369C0.78125 10.369 1.27133 9.48579 2.43124 8.56109C3.41896 7.77415 4.30829 7.33633 5.68959 7.13441C6.90626 6.95702 9.34529 7.01363 13.4116 7.0325C17.4779 7.04949 20.3711 7.05515 20.7419 7.03817C21.1128 7.02118 21.6048 6.70414 22.1895 6.33426C22.7723 5.96438 23.005 6.50788 23.005 6.50788L23.6597 8.42899C23.6597 8.42899 23.6843 10.6445 23.6427 11.1804C23.6143 11.5352 23.1299 12.1504 22.882 12.2561C22.6341 12.3618 18.161 12.4316 16.8365 12.4316C15.51 12.4316 4.20422 12.3976 3.06512 12.3089C2.53531 12.2674 1.82763 11.9919 1.49082 11.656C0.870183 11.0389 0.78125 10.369 0.78125 10.369Z" fill="#D70617"/>
<path d="M1.5328 6.623C1.5328 6.623 3.04466 6.43428 3.15252 6.50977C3.28687 6.60412 2.69272 7.62507 2.53566 7.83077C2.45808 7.93268 1.12598 8.57431 1.12598 8.57431L1.12976 7.65149L1.5328 6.623Z" fill="#FFFEFF"/>
<path d="M6.20231 5.50395C6.24394 5.91158 6.69617 5.90214 7.98854 5.90214C9.01979 5.90214 19.4174 5.99838 19.6653 5.88893C19.7864 5.83609 19.9529 5.61152 20.1591 5.31335C20.4694 4.86799 20.6132 4.65663 20.5849 4.49056C20.53 4.16597 18.8403 2.03916 17.7825 1.40885C17.0503 0.972919 15.4741 0.971033 14.1703 0.955935C12.9896 0.942725 10.7493 0.914418 9.67827 1.59945C8.08315 2.6204 6.14744 4.96989 6.20231 5.50395Z" fill="#546D81"/>
<path d="M7.60471 5.09439C7.68797 5.19818 9.33228 5.16799 10.8612 5.16233C12.426 5.15666 13.8981 5.23215 13.9473 5.16233C13.97 5.13024 14.0476 1.82397 13.9833 1.76547C13.936 1.72207 13.5311 1.75226 13.0164 1.75792C12.1573 1.76736 10.9066 1.90135 10.1194 2.34105C8.76651 3.09402 7.44009 4.88869 7.60471 5.09439Z" fill="#AFE3FB"/>
<path d="M14.9255 1.82606C14.9122 1.85059 14.8876 5.18896 14.9084 5.20217C15.0182 5.27011 19.2094 5.21727 19.251 5.16254C19.2926 5.10781 19.7449 4.66999 19.7316 4.56054C19.7184 4.45108 18.3049 2.70925 17.3342 2.11857C16.9085 1.85626 14.9482 1.78832 14.9255 1.82606Z" fill="#AFE3FB"/>
<path d="M7.19602 6.33797C7.31901 6.66256 7.97181 6.8041 8.39187 6.76635C9.01251 6.70974 9.38527 6.3493 9.45149 5.60765C9.52907 4.75655 9.13929 4.36591 8.8687 4.31496C8.58109 4.26023 7.18466 5.74164 7.18466 5.74164C7.18466 5.74164 7.09384 6.06811 7.19602 6.33797Z" fill="#AF0F21"/>
<path d="M8.08698 6.15693C8.54678 6.10786 8.87602 5.68515 9.03496 5.34735C9.19202 5.00956 9.30933 4.50004 8.95549 4.34529C8.5165 4.15469 8.12104 4.37926 7.85045 4.68309C7.61204 4.95106 7.15034 5.5606 7.1844 5.73987C7.21846 5.92104 7.45499 6.22487 8.08698 6.15693Z" fill="#F92612"/>
<path d="M3.51696 11.8788C3.53399 12.9205 4.36655 14.4188 6.17928 14.4302C7.992 14.4415 8.93242 13.0563 8.87566 11.6372C8.817 10.1954 7.69303 9.17638 6.07521 9.22167C4.56145 9.26696 3.49425 10.437 3.51696 11.8788Z" fill="#4E433D"/>
<path d="M4.77952 11.792C4.78898 12.3412 5.23554 13.1319 6.21001 13.1376C7.18449 13.1432 7.65564 12.4544 7.62537 11.7071C7.5932 10.9466 6.97067 10.3804 6.15325 10.3918C5.33961 10.405 4.76628 11.0315 4.77952 11.792Z" fill="#C8C8C8"/>
<path d="M16.8988 11.9655C16.9158 12.9997 17.7295 14.4867 19.5044 14.498C21.2792 14.5094 22.1989 13.1355 22.144 11.7277C22.0872 10.2954 20.9878 9.28576 19.4041 9.33105C17.9225 9.37446 16.8761 10.535 16.8988 11.9655Z" fill="#4E433D"/>
<path d="M18.0832 11.8846C18.0926 12.4337 18.5392 13.2244 19.5137 13.2301C20.4882 13.2358 20.9593 12.547 20.929 11.7996C20.8969 11.0391 20.2743 10.473 19.4569 10.4843C18.6452 10.4975 18.0718 11.124 18.0832 11.8846Z" fill="#C8C8C8"/>
<path d="M23.0917 5.4248C23.0368 5.50218 22.0869 6.28346 22.0869 6.40424C22.0869 6.52502 23.1692 8.0857 23.1692 8.0857L23.4228 8.23856C23.4228 8.23856 23.5439 6.26082 23.5439 6.21741C23.5439 6.17778 23.0917 5.4248 23.0917 5.4248Z" fill="#FFFEFF"/>
<path d="M23.6612 8.7197C23.6612 8.7197 23.7501 7.29868 23.7388 6.53062C23.7274 5.69462 23.489 5.0813 23.489 5.0813L23.0879 5.43042C23.0879 5.43042 23.2241 6.17018 23.2241 6.65517C23.2241 7.14016 23.1693 8.08562 23.1693 8.08562L23.6612 8.7197Z" fill="#D5CCC2"/>
</svg>
