<svg width="24" height="13" viewBox="0 0 24 13" fill="none" xmlns="http://www.w3.org/2000/svg">
<path d="M21.0612 10.9314L20.9132 12.0719C20.9094 12.1696 20.8037 12.2655 20.4904 12.2655C20.2117 12.2655 20.1445 12.1466 20.1368 12.068L20.0195 10.9333H21.0612V10.9314Z" fill="#C87D5E"/>
<path d="M20.0483 11.2246C20.081 11.378 20.2905 11.5236 20.5499 11.5236C20.8094 11.5236 21.0189 11.3914 21.0189 11.2265L21.0554 10.9294C21.0266 10.9294 20.0464 10.9314 20.0176 10.9352L20.0483 11.2246V11.2246Z" fill="#A65F3E"/>
<path d="M2.50781 10.9314L2.6558 12.0719C2.65964 12.1696 2.76535 12.2655 3.07862 12.2655C3.3573 12.2655 3.42457 12.1466 3.43226 12.068L3.54949 10.9333H2.50781V10.9314Z" fill="#C87D5E"/>
<path d="M3.52076 11.2247C3.48808 11.378 3.27859 11.5237 3.01914 11.5237C2.75968 11.5237 2.55019 11.3914 2.55019 11.2266L2.51367 10.9314C2.5425 10.9314 3.52268 10.9333 3.55151 10.9371L3.52076 11.2247V11.2247Z" fill="#A65F3E"/>
<path d="M21.5997 4.30128L21.5228 7.3298L19.7412 6.00914L20.0929 3.76074L21.5997 4.30128Z" fill="#0B52A0"/>
<path d="M21.2094 4.28205C21.4093 4.38556 21.5746 4.37406 21.6937 4.18238C21.9897 3.71467 22.3856 3.73768 22.6681 3.75876C22.9372 3.77793 23.1159 3.9006 23.2831 4.23988C23.237 4.04437 23.1909 3.71467 22.5932 3.592C21.9128 3.45015 20.137 3.43482 20.137 3.43482C20.1024 3.41757 20.0928 3.86035 20.0928 3.86035L21.2094 4.28205V4.28205Z" fill="#48CDED"/>
<path d="M1.99219 4.30128L2.06906 7.3298L3.85069 6.00914L3.49897 3.76074L1.99219 4.30128Z" fill="#0B52A0"/>
<path d="M2.38233 4.28205C2.18246 4.38556 2.01717 4.37406 1.89801 4.18238C1.60204 3.71467 1.20613 3.73768 0.923605 3.75876C0.654537 3.77793 0.4758 3.9006 0.308594 4.23988C0.35472 4.04437 0.400845 3.71467 0.998559 3.592C1.67891 3.45015 3.45476 3.43482 3.45476 3.43482C3.48935 3.41757 3.49896 3.86035 3.49896 3.86035L2.38233 4.28205V4.28205Z" fill="#48CDED"/>
<path d="M20.1027 1.11174C20.095 1.05807 20.0854 1.0044 20.0758 0.954562C20.0047 0.596122 19.7433 0.323938 19.4185 0.274101C18.7593 0.172511 17.4197 0 15.8245 0C14.408 0 13.1934 0.136092 12.4784 0.237682C12.0864 0.293269 11.7942 0.66896 11.7942 1.11174C11.7942 0.667043 11.5021 0.293269 11.11 0.237682C10.0015 0.081454 8.88351 0.00203668 7.76399 0C6.1688 0 4.82731 0.172511 4.17001 0.274101C3.84521 0.323938 3.58767 0.596122 3.51272 0.954562C3.13026 2.77935 3.73374 6.04556 3.73374 6.04556H19.8586C19.8548 6.04556 20.391 2.92119 20.1027 1.11174V1.11174Z" fill="#3DAAE0"/>
<path d="M11.9945 6.04549C11.8888 6.29467 11.6486 6.29659 11.589 6.04549C11.5294 5.79439 11.589 2.57802 11.589 2.08732C11.589 1.59662 11.7927 1.06567 11.7927 1.06567C11.7927 1.06567 11.9964 1.6963 11.9964 2.08732C11.9964 2.47835 12.1002 5.7963 11.9945 6.04549V6.04549Z" fill="#188AD6"/>
<path d="M21.475 7.20909C21.5057 7.20717 20.4314 6.0456 19.7491 5.92867C19.7491 5.92867 18.5075 5.69674 16.3377 5.69674C14.1679 5.69674 11.7904 6.0456 11.7904 6.0456L11.7847 6.13377L11.7789 6.04368C11.7789 6.04368 9.39959 5.69482 7.23167 5.69482C5.06183 5.69482 3.82027 5.92676 3.82027 5.92676C3.13799 6.04368 2.06365 7.20525 2.0944 7.20717L10.7776 7.18417L11.7847 7.86655L12.5957 7.18417L21.475 7.20909V7.20909Z" fill="#48CDED"/>
<path d="M22.5877 3.71872C21.9553 3.66505 21.5556 3.98132 21.496 4.65027C21.4345 5.33073 21.446 6.41946 21.4653 7.20343C21.3865 7.10759 21.2788 7.04242 21.1558 7.02516C20.4082 6.92357 18.7803 6.7434 16.6951 6.7434C14.6098 6.7434 12.9723 6.86032 12.2343 7.02516C12.0652 7.0635 11.921 7.25134 11.8442 7.45836C11.8249 7.51203 11.7461 7.51394 11.7269 7.45836C11.65 7.25134 11.5059 7.0635 11.3368 7.02325C10.6122 6.8584 8.96128 6.74148 6.876 6.74148C4.79073 6.74148 3.16286 6.92166 2.41524 7.02325C2.29224 7.0405 2.18461 7.10567 2.10581 7.20151C2.12503 6.41754 2.13464 5.33073 2.07506 4.64836C2.01548 3.9794 1.68876 3.67271 0.983414 3.7168C0.574046 3.74172 0.231945 4.05415 0.255008 4.51418L0.420293 7.89538C0.420293 10.1054 1.7099 11.1271 3.29355 11.1271H20.2756C21.8592 11.1271 23.1489 10.1054 23.1489 7.89538L23.3141 4.51418C23.3391 4.05607 22.9951 3.75322 22.5877 3.71872V3.71872Z" fill="#188AD6"/>
<path d="M21.1387 9.35002C20.4045 9.53212 18.8939 9.53212 16.6933 9.53212C14.4946 9.53212 12.9667 9.41711 12.2479 9.35002C12.0864 9.33469 11.9461 9.1756 11.8635 8.98583C11.8568 8.96972 11.8455 8.95595 11.8309 8.94626C11.8164 8.93657 11.7993 8.9314 11.7818 8.9314C11.7643 8.9314 11.7472 8.93657 11.7327 8.94626C11.7182 8.95595 11.7068 8.96972 11.7001 8.98583C11.6175 9.1756 11.4791 9.33469 11.3158 9.35002C10.5989 9.41903 9.07096 9.53212 6.87037 9.53212C4.6717 9.53212 3.09573 9.53212 2.42498 9.35002C2.28468 9.31169 2.15976 9.23118 2.0752 9.11809C2.19435 9.62796 2.63255 10.0151 3.17453 10.0458C4.6102 10.1302 18.9496 10.1302 20.3872 10.0458C20.9272 10.0151 21.3635 9.62796 21.4846 9.12193C21.4039 9.23502 21.279 9.31552 21.1387 9.35002Z" fill="#0B52A0"/>
</svg>
