<svg width="17" height="20" viewBox="0 0 17 20" fill="none" xmlns="http://www.w3.org/2000/svg">
<path d="M3.76731 10.0238C3.76731 9.74767 3.99117 9.52381 4.26731 9.52381H10.8019C11.0781 9.52381 11.3019 9.74767 11.3019 10.0238V10.9286C11.3019 11.2047 11.0781 11.4286 10.8019 11.4286H4.26731C3.99117 11.4286 3.76731 11.2047 3.76731 10.9286V10.0238ZM5.65097 18.0952C5.65097 17.5693 5.22457 17.1429 4.69859 17.1429H1.88366V1.90476H8.47645V6.16667C8.47645 6.44281 8.70031 6.66667 8.97645 6.66667H13.1856V8.88904C13.1856 9.15712 13.5104 9.2906 13.6989 9.09999L14.9826 7.80195C15.0381 7.74579 15.0693 7.66999 15.0693 7.591V5.91976C15.0693 5.78812 15.0173 5.66179 14.9248 5.56818L9.56506 0.148422C9.47114 0.0534464 9.34312 0 9.20954 0H1.88366C1.38408 0 0.904964 0.20068 0.55171 0.557892C0.198456 0.915104 0 1.39959 0 1.90476V17.1429C0 17.648 0.198456 18.1325 0.55171 18.4897C0.904964 18.8469 1.38408 19.0476 1.88366 19.0476H4.69859C5.22457 19.0476 5.65097 18.6212 5.65097 18.0952ZM3.76731 14.7381C3.76731 15.0142 3.99117 15.2381 4.26731 15.2381H7.62881L8.47645 14.381V13.8333C8.47645 13.5572 8.2526 13.3333 7.97645 13.3333H4.26731C3.99117 13.3333 3.76731 13.5572 3.76731 13.8333V14.7381ZM15.2576 10.4762C15.3518 10.4762 15.5402 10.5714 15.6344 10.6667L16.8587 11.9048C17.0471 12.0952 17.0471 12.4762 16.8587 12.6667L16.2724 13.2595C16.0767 13.4574 15.7571 13.4574 15.5614 13.2595L14.2867 11.9706C14.0941 11.7758 14.0941 11.4623 14.2867 11.2675L14.8809 10.6667C14.9751 10.5714 15.0693 10.4762 15.2576 10.4762ZM14.9099 13.8389C15.1026 14.0337 15.1026 14.3473 14.9099 14.5421L9.60053 19.9109C9.54418 19.9679 9.46737 20 9.38722 20H8.03463C7.75848 20 7.53463 19.7761 7.53463 19.5V18.1233C7.53463 18.0443 7.56578 17.9685 7.62132 17.9123L12.9243 12.55C13.12 12.3521 13.4396 12.3521 13.6353 12.55L14.9099 13.8389Z" fill="#515151"/>
</svg>
