<svg width="34" height="33" viewBox="0 0 34 33" fill="none" xmlns="http://www.w3.org/2000/svg">
<path fill-rule="evenodd" clip-rule="evenodd" d="M25.4399 32.9492C7.68894 27.0503 0.663663 10.3175 0.663663 10.3175C0.663663 10.3175 -0.0971389 8.77857 0.903235 8.00105L10.3469 0.370413C10.5161 0.233627 10.7107 0.131267 10.9198 0.0691832C11.1288 0.00709962 11.3482 -0.0134904 11.5653 0.00858963C11.7823 0.0306697 11.9929 0.0949869 12.1849 0.197866C12.3769 0.300745 12.5466 0.440168 12.6843 0.608167C12.6843 0.608167 20.0528 12.1296 33.1127 20.7241C33.812 21.1836 33.6307 22.2503 32.8181 22.4623C31.099 22.9153 28.4345 23.5001 25.291 23.7957C24.9996 23.8246 24.8021 24.0977 24.8701 24.3772L26.6928 31.7958C26.8709 32.5347 26.1651 33.1902 25.4399 32.9492ZM7.5562 6.51669C6.77598 7.14642 6.65943 8.28378 7.29397 9.05809C7.44483 9.24214 7.63077 9.39488 7.84115 9.50757C8.05152 9.62027 8.28221 9.69071 8.52004 9.71488C8.75786 9.73905 8.99816 9.71647 9.22718 9.64843C9.45621 9.58039 9.66947 9.46822 9.8548 9.31834C10.0402 9.16862 10.1942 8.98409 10.3077 8.77531C10.4213 8.56653 10.4923 8.33759 10.5166 8.10157C10.541 7.86555 10.5182 7.62708 10.4496 7.39979C10.3811 7.1725 10.2681 6.96085 10.117 6.77693C9.48249 6.00262 8.33643 5.88696 7.5562 6.51669ZM17.9145 16.0597L15.8061 15.0368L16.3243 17.4404L14.7549 19.2581L17.0658 19.4735L18.2063 21.6205L19.1146 19.3531L21.3868 18.8623L19.6387 17.2441L19.9038 14.793L17.9145 16.0597Z" fill="white"/>
</svg>
