<svg width="28" height="25" viewBox="0 0 28 25" fill="none" xmlns="http://www.w3.org/2000/svg">
<path d="M24.1818 0C25.1945 0 26.1656 0.395088 26.8817 1.09835C27.5977 1.80161 28 2.75544 28 3.75V6.25H25.4545V21.25C25.4545 22.2446 25.0523 23.1984 24.3362 23.9017C23.6202 24.6049 22.649 25 21.6364 25H3.81818C2.80554 25 1.83437 24.6049 1.11832 23.9017C0.402272 23.1984 0 22.2446 0 21.25V18.75H20.3636V21.25C20.3637 21.5562 20.4781 21.8517 20.6853 22.0805C20.8924 22.3093 21.1779 22.4554 21.4875 22.4912L21.6364 22.5C21.9481 22.5 22.249 22.3876 22.4819 22.1841C22.7149 21.9807 22.8637 21.7003 22.9002 21.3963L22.9091 21.25V16.25H2.54545V3.75C2.54545 2.75544 2.94773 1.80161 3.66377 1.09835C4.37982 0.395088 5.35099 0 6.36364 0H24.1818Z" fill="white"/>
</svg>
