<svg width="18" height="20" viewBox="0 0 18 20" fill="none" xmlns="http://www.w3.org/2000/svg">
<path d="M16 17C16 17.5523 15.5523 18 15 18H3C2.44772 18 2 17.5523 2 17V8C2 7.44771 2.44772 7 3 7H15C15.5523 7 16 7.44772 16 8V17ZM16 2H15V1C15 0.447715 14.5523 0 14 0C13.4477 0 13 0.447715 13 1V2H5V1C5 0.447715 4.55228 0 4 0C3.44772 0 3 0.447715 3 1V2H2C1.46957 2 0.960859 2.21071 0.585786 2.58579C0.210714 2.96086 0 3.46957 0 4V18C0 18.5304 0.210714 19.0391 0.585786 19.4142C0.960859 19.7893 1.46957 20 2 20H16C16.5304 20 17.0391 19.7893 17.4142 19.4142C17.7893 19.0391 18 18.5304 18 18V4C18 3.46957 17.7893 2.96086 17.4142 2.58579C17.0391 2.21071 16.5304 2 16 2ZM13 10.59C13.2927 10.2973 13.2927 9.82271 13 9.53C12.7073 9.23729 12.2327 9.23729 11.94 9.53L7.74143 13.7286C7.6578 13.8122 7.5222 13.8122 7.43857 13.7286L6 12.29C5.70729 11.9973 5.23271 11.9973 4.94 12.29C4.64729 12.5827 4.64729 13.0573 4.94 13.35L7.36286 15.7729C7.4883 15.8983 7.6917 15.8983 7.81714 15.7729L13 10.59Z" fill="#515151"/>
</svg>
