<svg width="34" height="33" viewBox="0 0 34 33" fill="none" xmlns="http://www.w3.org/2000/svg">
<path d="M17.8293 0.723303L21.5409 9.56567C21.6805 9.89845 21.9031 10.186 22.1854 10.3983C22.4677 10.6105 22.7993 10.7398 23.1458 10.7725L32.1876 11.6193C33.2106 11.7748 33.6188 13.0853 32.877 13.84L26.066 19.8165C25.5145 20.3004 25.2635 21.0607 25.4152 21.7952L27.3951 31.4757C27.5688 32.5385 26.5016 33.3508 25.5862 32.8467L17.6942 28.0194C17.3965 27.8369 17.0577 27.7407 16.7125 27.7407C16.3674 27.7407 16.0285 27.8369 15.7309 28.0194L7.83889 32.8438C6.92616 33.345 5.85625 32.5357 6.02997 31.4728L8.00985 21.7923C8.15876 21.0579 7.91058 20.2975 7.35908 19.8136L0.545301 13.8428C-0.193709 13.0911 0.214401 11.7777 1.23468 11.6222L10.2765 10.7754C10.6229 10.7427 10.9546 10.6134 11.2369 10.4011C11.5192 10.1889 11.7418 9.90133 11.8814 9.56855L15.593 0.726183C16.0535 -0.241581 17.3716 -0.24158 17.8293 0.723303Z" fill="white"/>
</svg>
