<svg width="28" height="28" viewBox="0 0 28 28" fill="none" xmlns="http://www.w3.org/2000/svg">
<path d="M22.26 21.546C21.896 20.426 20.846 19.6 19.6 19.6H18.2V15.4C18.2 15.0287 18.0525 14.6726 17.7899 14.4101C17.5274 14.1475 17.1713 14 16.8 14H8.4V11.2H11.2C11.5713 11.2 11.9274 11.0525 12.1899 10.7899C12.4525 10.5274 12.6 10.1713 12.6 9.8V7H15.4C16.1426 7 16.8548 6.705 17.3799 6.1799C17.905 5.6548 18.2 4.94261 18.2 4.2V3.626C19.8751 4.30131 21.3615 5.37246 22.5322 6.74777C23.7029 8.12307 24.5228 9.76157 24.9219 11.523C25.321 13.2844 25.2873 15.1163 24.8237 16.8619C24.3601 18.6074 23.4804 20.2147 22.26 21.546ZM12.6 25.102C7.07 24.416 2.8 19.712 2.8 14C2.8 13.132 2.912 12.292 3.094 11.494L9.8 18.2V19.6C9.8 20.3426 10.095 21.0548 10.6201 21.5799C11.1452 22.105 11.8574 22.4 12.6 22.4V25.102ZM14 0C12.1615 0 10.341 0.362121 8.64243 1.06569C6.94387 1.76925 5.40053 2.80048 4.1005 4.1005C1.475 6.72601 0 10.287 0 14C0 17.713 1.475 21.274 4.1005 23.8995C5.40053 25.1995 6.94387 26.2307 8.64243 26.9343C10.341 27.6379 12.1615 28 14 28C17.713 28 21.274 26.525 23.8995 23.8995C26.525 21.274 28 17.713 28 14C28 12.1615 27.6379 10.341 26.9343 8.64243C26.2307 6.94387 25.1995 5.40053 23.8995 4.1005C22.5995 2.80048 21.0561 1.76925 19.3576 1.06569C17.659 0.362121 15.8385 0 14 0Z" fill="white"/>
</svg>
