<svg width="111" height="30" viewBox="0 0 111 30" fill="none" xmlns="http://www.w3.org/2000/svg">
<g clip-path="url(#clip0_5196_1943)">
<path d="M0 11.9674C0 8.40935 2.58803 5.71704 6.34003 5.71704C8.17213 5.71704 9.78965 6.25029 10.9487 7.74891C11.2186 8.10441 11.1373 8.4354 10.7862 8.71428L10.1619 9.1939C9.78478 9.47432 9.43364 9.42375 9.11013 9.11882C8.45987 8.45685 7.65518 8.15192 6.46845 8.15192C4.2592 8.15192 2.99282 9.7532 2.99282 11.9644C2.99282 14.1234 4.33886 15.7952 6.54974 15.7952C7.76247 15.7952 8.62569 15.3891 9.30033 14.7226C9.62546 14.3916 9.97335 14.341 10.3245 14.6459L10.9748 15.1286C11.3243 15.383 11.4316 15.714 11.1373 16.0695C10.0319 17.542 8.41436 18.2285 6.39367 18.2285C2.42547 18.2423 0 15.6006 0 11.9674Z" fill="white"/>
<path d="M12.4268 11.9677C12.4268 8.53678 15.0961 5.71729 19.0919 5.71729C23.1073 5.71729 25.6693 8.40959 25.6693 11.9677C25.6693 15.371 23.0276 18.2502 19.0919 18.2502C15.0278 18.2502 12.4268 15.5564 12.4268 11.9753V11.9677ZM22.6976 11.9753C22.6976 9.91588 21.3971 8.16289 19.0854 8.16289C16.686 8.16289 15.4196 9.91588 15.4196 11.9753C15.4196 14.0578 16.686 15.8062 19.0854 15.8062C21.4036 15.8062 22.6976 14.0532 22.6976 11.9753Z" fill="white"/>
<path d="M27.9268 17.2772V6.68265C27.9268 6.25054 28.195 5.99617 28.6811 5.99617H29.7052C30.11 5.99617 30.4335 6.17392 30.5408 6.55547C30.6397 6.94739 30.7012 7.34689 30.7245 7.74916C31.6674 6.5049 33.15 5.71729 35.0097 5.71729C38.1911 5.71729 40.0785 7.49479 40.0785 11.2046V17.2772C40.0881 17.3696 40.0758 17.4628 40.0426 17.5502C40.0094 17.6376 39.9561 17.717 39.8864 17.7827C39.8168 17.8483 39.7326 17.8986 39.6399 17.9299C39.5471 17.9612 39.4482 17.9727 39.3502 17.9637H37.8448C37.747 17.9725 37.6482 17.9608 37.5557 17.9294C37.4632 17.898 37.3792 17.8476 37.3097 17.782C37.2403 17.7164 37.1871 17.6371 37.1539 17.5498C37.1208 17.4626 37.1086 17.3695 37.1182 17.2772V11.0774C37.1182 9.12213 36.1428 8.15523 34.4765 8.15523C32.2933 8.15523 30.918 9.50215 30.918 12.0182V17.2772C30.9275 17.3695 30.9153 17.4626 30.8822 17.5498C30.8491 17.6371 30.7959 17.7164 30.7264 17.782C30.657 17.8476 30.573 17.898 30.4804 17.9294C30.3879 17.9608 30.2892 17.9725 30.1913 17.9637H28.6811C28.1934 17.9637 27.9268 17.7093 27.9268 17.2772Z" fill="white"/>
<path d="M42.3484 16.6934C41.9973 16.3869 41.9713 16.0314 42.2671 15.702L42.7548 15.1427C43.0523 14.8132 43.3758 14.7872 43.7806 15.0415C44.756 15.6759 45.8826 15.9058 47.2562 15.9058C48.6592 15.9058 49.6021 15.5748 49.6021 14.5588C49.6021 13.5935 48.6592 13.238 46.9067 13.0081C44.1838 12.6526 42.4053 11.7378 42.4053 9.29988C42.4053 7.24042 44.426 5.71729 47.5001 5.71729C49.3858 5.71729 50.7335 6.19997 51.8893 7.16534C52.2405 7.44422 52.2681 7.79973 51.9706 8.13071L51.4586 8.69001C51.1627 8.99648 50.8083 9.01946 50.4344 8.76509C49.5712 8.15216 48.7096 7.97748 47.5229 7.97748C45.8793 7.97748 45.286 8.56283 45.286 9.29988C45.286 10.2392 46.0988 10.443 47.9813 10.7479C50.5693 11.154 52.5331 11.9922 52.5331 14.5083C52.5331 16.5907 50.6734 18.2426 47.5472 18.2426C45.2014 18.2426 43.6115 17.6833 42.3452 16.6934" fill="white"/>
<path d="M53.9717 11.9675C53.9717 8.53662 56.641 5.71713 60.6368 5.71713C64.6522 5.71713 67.2142 8.40944 67.2142 11.9675C67.2142 15.3708 64.5725 18.2501 60.6368 18.2501C56.5727 18.2501 53.9717 15.5562 53.9717 11.9752V11.9675ZM64.2425 11.9752C64.2425 9.91572 62.942 8.16273 60.6303 8.16273C58.2309 8.16273 56.9645 9.91572 56.9645 11.9752C56.9645 14.0576 58.2309 15.806 60.6303 15.806C62.9485 15.806 64.2425 14.053 64.2425 11.9752ZM58.6552 3.88753L58.3593 3.42783C58.2776 3.29689 58.2312 3.14902 58.2244 2.99724C58.2258 2.88657 58.2626 2.77886 58.3299 2.68814C58.3971 2.59741 58.4918 2.52785 58.6015 2.48851L62.6461 0.127184C62.7752 0.0506256 62.923 0.00681346 63.0753 0C63.1947 0.00626637 63.3101 0.0425396 63.4096 0.105053C63.5091 0.167567 63.589 0.254043 63.641 0.355501L64.0507 0.991419C64.1431 1.10841 64.1902 1.25174 64.184 1.39749C64.1812 1.51091 64.1442 1.62124 64.0774 1.71564C64.0107 1.81004 63.9168 1.88463 63.8069 1.93074L59.6615 4.1373C59.5365 4.19968 59.398 4.23428 59.2567 4.23843C59.1344 4.22956 59.0164 4.1925 58.9129 4.13051C58.8094 4.06852 58.7237 3.98349 58.6633 3.88293" fill="white"/>
<path d="M69.4658 17.277V6.68246C69.4658 6.25034 69.7357 5.99597 70.2201 5.99597H71.2443C71.6491 5.99597 71.9726 6.17372 72.0571 6.55527C72.1691 6.95675 72.2414 7.36711 72.2733 7.78114C73.1902 6.51084 74.5655 5.72322 76.3163 5.72322C76.8221 5.71015 77.3253 5.79625 77.794 5.97605C78.2264 6.12928 78.3061 6.48479 78.1452 6.89545L77.6575 7.93744C77.4949 8.34504 77.199 8.42012 76.7682 8.34504C76.5155 8.26985 76.2512 8.23515 75.9863 8.24237C74.0729 8.24237 72.4554 9.43759 72.4554 12.1038V17.2877C72.4649 17.38 72.4527 17.4731 72.4196 17.5604C72.3865 17.6476 72.3333 17.7269 72.2639 17.7925C72.1944 17.8582 72.1104 17.9085 72.0179 17.9399C71.9254 17.9713 71.8266 17.983 71.7287 17.9742H70.2282C69.7406 17.9742 69.4739 17.7199 69.4739 17.2877" fill="white"/>
<path d="M78.5762 11.9677C78.5762 8.40959 81.1642 5.71729 84.9162 5.71729C86.7499 5.71729 88.3658 6.25054 89.5249 7.74916C89.7948 8.10466 89.7135 8.43564 89.3623 8.71453L88.7381 9.19415C88.3609 9.47456 88.0114 9.424 87.6879 9.11906C87.0377 8.45709 86.2249 8.15216 85.0463 8.15216C82.8354 8.15216 81.569 9.75345 81.569 11.9646C81.569 14.1237 82.9167 15.7954 85.1275 15.7954C86.3403 15.7954 87.2019 15.3894 87.8765 14.7228C88.2016 14.3918 88.5495 14.3412 88.9007 14.6462L89.5509 15.1289C89.9021 15.3832 90.0094 15.7142 89.7135 16.0697C88.608 17.5423 86.9922 18.2288 84.9698 18.2288C81.0081 18.2288 78.581 15.587 78.581 11.9539" fill="white"/>
<path d="M91.5694 2.71822C91.5679 2.50003 91.6133 2.28381 91.7028 2.0826C91.7924 1.88139 91.9242 1.69934 92.0904 1.54743C92.2565 1.39553 92.4536 1.2769 92.6697 1.1987C92.8858 1.1205 93.1165 1.08434 93.3478 1.09241C94.4256 1.09241 95.1263 1.82947 95.1263 2.71822C95.1263 3.63762 94.4256 4.34402 93.3478 4.34402C92.27 4.34402 91.5694 3.63302 91.5694 2.71822ZM91.8652 17.2754V6.68236C91.8652 6.25025 92.1351 5.99588 92.6195 5.99588H94.1249C94.2229 5.98683 94.3218 5.99837 94.4146 6.02968C94.5073 6.06098 94.5915 6.11126 94.6611 6.1769C94.7308 6.24255 94.7841 6.32192 94.8173 6.40932C94.8505 6.49672 94.8628 6.58997 94.8532 6.68236V17.2769C94.8628 17.3693 94.8505 17.4626 94.8173 17.55C94.7841 17.6374 94.7308 17.7167 94.6611 17.7824C94.5915 17.848 94.5073 17.8983 94.4146 17.9296C94.3218 17.9609 94.2229 17.9724 94.1249 17.9634H92.6147C92.127 17.9634 91.8604 17.709 91.8604 17.2769" fill="white"/>
<path d="M97.1211 11.9674C97.1211 8.53653 99.7904 5.71704 103.786 5.71704C107.802 5.71704 110.364 8.40935 110.364 11.9674C110.364 15.3707 107.722 18.25 103.786 18.25C99.7221 18.25 97.1211 15.5561 97.1211 11.9751V11.9674ZM107.392 11.9751C107.392 9.91563 106.091 8.16264 103.78 8.16264C101.38 8.16264 100.114 9.91563 100.114 11.9751C100.114 14.0575 101.38 15.8059 103.78 15.8059C106.098 15.8059 107.392 14.0529 107.392 11.9751Z" fill="white"/>
<path d="M109.964 22.3107H109.104C109.051 22.306 108.998 22.3123 108.948 22.3292C108.898 22.346 108.853 22.3731 108.815 22.4083C108.777 22.4436 108.749 22.4862 108.73 22.5331C108.712 22.5801 108.705 22.6302 108.71 22.68V25.0781C108.71 25.9576 108.206 26.4572 107.506 26.4572C106.769 26.4572 106.351 25.9975 106.351 25.1378V22.6784C106.356 22.6287 106.349 22.5786 106.331 22.5316C106.313 22.4846 106.284 22.442 106.247 22.4068C106.209 22.3715 106.164 22.3445 106.114 22.3276C106.064 22.3108 106.011 22.3044 105.958 22.3091H105.098C105.045 22.3044 104.992 22.3108 104.942 22.3276C104.892 22.3445 104.847 22.3715 104.809 22.4068C104.772 22.442 104.743 22.4846 104.725 22.5316C104.707 22.5786 104.7 22.6287 104.705 22.6784V25.2497C104.705 26.8832 105.602 27.8087 106.953 27.8087C107.766 27.8087 108.39 27.5543 108.832 27.0333L108.907 27.3582C108.922 27.4532 108.974 27.5394 109.054 27.5994C109.134 27.6594 109.234 27.6887 109.336 27.6815H109.964C110.016 27.686 110.07 27.6795 110.119 27.6624C110.169 27.6454 110.214 27.6182 110.252 27.5828C110.289 27.5474 110.318 27.5046 110.336 27.4576C110.354 27.4106 110.36 27.3604 110.355 27.3107V22.6784C110.36 22.6288 110.354 22.5787 110.336 22.5317C110.318 22.4847 110.289 22.4421 110.252 22.4068C110.214 22.3715 110.169 22.3445 110.119 22.3276C110.069 22.3107 110.016 22.3044 109.964 22.3091" fill="white"/>
<path d="M103.968 26.2703H102.416C101.876 26.2703 101.593 26.0052 101.593 25.4949V22.6785C101.598 22.6286 101.592 22.5783 101.574 22.5312C101.556 22.484 101.527 22.4412 101.489 22.4058C101.452 22.3704 101.406 22.3432 101.356 22.3262C101.306 22.3093 101.253 22.3029 101.2 22.3077H100.319C100.266 22.3029 100.213 22.3093 100.163 22.3262C100.113 22.3432 100.067 22.3704 100.03 22.4058C99.9919 22.4412 99.9631 22.484 99.9451 22.5312C99.9271 22.5783 99.9204 22.6286 99.9254 22.6785V25.688C99.9254 26.9277 100.725 27.68 102.039 27.68H103.968C104.021 27.6848 104.074 27.6785 104.124 27.6616C104.174 27.6447 104.219 27.6177 104.257 27.5824C104.294 27.5471 104.323 27.5044 104.341 27.4575C104.359 27.4105 104.365 27.3604 104.36 27.3107V26.638C104.365 26.5883 104.359 26.5381 104.341 26.4911C104.323 26.4441 104.294 26.4014 104.257 26.366C104.219 26.3306 104.174 26.3034 104.124 26.2863C104.074 26.2692 104.021 26.2627 103.968 26.2672" fill="white"/>
<path d="M78.9297 22.6692C78.9318 22.6194 78.9226 22.5698 78.9026 22.5237C78.8825 22.4776 78.8522 22.4361 78.8136 22.4021C78.7751 22.368 78.7291 22.3423 78.679 22.3265C78.6289 22.3107 78.5758 22.3053 78.5232 22.3106H77.873C77.7777 22.307 77.6832 22.329 77.6006 22.3741C77.518 22.4191 77.4507 22.4853 77.4064 22.565L75.8214 25.0887L74.347 22.565C74.3043 22.484 74.2373 22.4168 74.1543 22.3715C74.0714 22.3263 73.9761 22.3051 73.8804 22.3106H73.1798C73.1273 22.3052 73.0742 22.3106 73.0242 22.3264C72.9741 22.3422 72.9283 22.3681 72.8899 22.4021C72.8514 22.4362 72.8212 22.4777 72.8014 22.5238C72.7816 22.5699 72.7725 22.6195 72.775 22.6692L72.3686 27.3014C72.3544 27.3511 72.3537 27.4033 72.3666 27.4533C72.3795 27.5033 72.4055 27.5494 72.4423 27.5874C72.479 27.6254 72.5254 27.6541 72.577 27.6708C72.6286 27.6875 72.6838 27.6917 72.7376 27.683H73.5244C73.577 27.6891 73.6304 27.6843 73.6809 27.6688C73.7313 27.6533 73.7775 27.6275 73.8161 27.5933C73.8548 27.559 73.8849 27.5172 73.9045 27.4707C73.924 27.4243 73.9324 27.3743 73.9292 27.3244L74.1015 24.7302L75.0476 26.3406C75.0903 26.4216 75.1573 26.4889 75.2402 26.5341C75.3232 26.5793 75.4185 26.6005 75.5142 26.595H76.0539C76.1496 26.6005 76.2449 26.5793 76.3278 26.5341C76.4108 26.4889 76.4778 26.4216 76.5205 26.3406L77.5901 24.6152L77.7137 27.3244C77.7089 27.3735 77.7159 27.4231 77.7341 27.4693C77.7523 27.5156 77.7812 27.5575 77.8188 27.5918C77.8563 27.6262 77.9016 27.6522 77.9512 27.668C78.0008 27.6838 78.0535 27.6889 78.1055 27.683H78.954C79.0078 27.6917 79.0631 27.6875 79.1147 27.6708C79.1663 27.6541 79.2126 27.6254 79.2493 27.5874C79.2861 27.5494 79.3121 27.5033 79.325 27.4533C79.3379 27.4033 79.3372 27.3511 79.3231 27.3014L78.9297 22.6692Z" fill="white"/>
<path d="M98.7829 22.3108H98.1082C98.0041 22.3023 97.9005 22.3326 97.8199 22.3954C97.7393 22.4582 97.6881 22.5484 97.6774 22.6464L97.6417 22.913C97.4071 22.6716 97.1194 22.4812 96.7988 22.3553C96.4782 22.2293 96.1323 22.1707 95.7852 22.1836C94.2376 22.1836 93.0947 23.3298 93.0947 24.9847C93.0947 26.6075 94.1644 27.8104 95.6958 27.8104C96.0632 27.8215 96.4289 27.758 96.768 27.6242C97.1071 27.4905 97.4117 27.2895 97.6612 27.035L97.7229 27.3599C97.7336 27.4546 97.7834 27.5417 97.8616 27.6022C97.9398 27.6627 98.04 27.6918 98.1407 27.6832H98.791C98.8438 27.6879 98.897 27.6816 98.9469 27.6647C98.9968 27.6478 99.0421 27.6208 99.0796 27.5855C99.1172 27.5503 99.146 27.5077 99.1642 27.4607C99.1823 27.4138 99.1892 27.3636 99.1844 27.3139V22.6786C99.1894 22.6287 99.1827 22.5784 99.1647 22.5313C99.1467 22.4841 99.1179 22.4413 99.0803 22.4059C99.0427 22.3704 98.9973 22.3433 98.9473 22.3263C98.8973 22.3094 98.8439 22.303 98.791 22.3078L98.7829 22.3108ZM96.1509 26.4527C95.278 26.4527 94.7253 25.8858 94.7253 25.0062C94.7253 24.1266 95.3024 23.5352 96.1509 23.5352C96.9995 23.5352 97.575 24.1021 97.575 24.9817C97.575 25.8612 96.9979 26.4527 96.1509 26.4527Z" fill="white"/>
<path d="M92.1129 22.3106H91.4367C91.3327 22.3021 91.2293 22.3325 91.149 22.3953C91.0686 22.4582 91.0178 22.5483 91.0075 22.6462L90.9701 22.9128C90.736 22.6713 90.4486 22.4808 90.1282 22.3548C89.8078 22.2288 89.4621 22.1703 89.1152 22.1834C87.5676 22.1834 86.4248 23.2561 86.4248 24.9156C86.4248 26.4908 87.4815 27.6018 89.0047 27.6018C89.3606 27.6138 89.7149 27.5514 90.0421 27.4189C90.3693 27.2864 90.6612 27.0872 90.897 26.8356V27.1007C90.897 28.0278 90.3442 28.6177 89.177 28.6177C88.6982 28.6216 88.2239 28.5297 87.7855 28.348C87.5514 28.2438 87.3677 28.2898 87.2571 28.5104L86.9857 29.0192C86.956 29.0593 86.9358 29.1049 86.9266 29.153C86.9175 29.2011 86.9194 29.2505 86.9324 29.2978C86.9454 29.3451 86.969 29.3892 87.0018 29.4271C87.0346 29.465 87.0756 29.4957 87.1222 29.5172C87.8071 29.8548 88.5718 30.0225 89.3445 30.0045C91.2741 30.0045 92.5031 28.8583 92.5031 27.2601V22.6784C92.5081 22.6285 92.5014 22.5782 92.4834 22.5311C92.4654 22.4839 92.4366 22.4411 92.399 22.4057C92.3614 22.3702 92.316 22.3431 92.266 22.3261C92.216 22.3092 92.1626 22.3028 92.1097 22.3076L92.1129 22.3106ZM89.468 26.2794C88.621 26.2794 88.0423 25.7461 88.0423 24.9248C88.0423 24.056 88.6454 23.535 89.468 23.535C90.2906 23.535 90.8937 24.01 90.8937 24.9018C90.9027 25.0822 90.8722 25.2623 90.8042 25.4311C90.7362 25.5999 90.6321 25.7538 90.4985 25.8831C90.3648 26.0124 90.2043 26.1144 90.0271 26.1829C89.8498 26.2513 89.6595 26.2847 89.468 26.2809" fill="white"/>
<path d="M85.4411 22.3106H84.7664C84.6623 22.3021 84.5587 22.3325 84.4781 22.3952C84.3975 22.458 84.3463 22.5482 84.3356 22.6462L84.2982 22.9128C84.0641 22.6712 83.7768 22.4808 83.4564 22.3548C83.136 22.2288 82.7903 22.1703 82.4434 22.1834C80.8958 22.1834 79.7529 23.3296 79.7529 24.9845C79.7529 26.6073 80.8226 27.8102 82.354 27.8102C82.7214 27.8213 83.0871 27.7578 83.4262 27.6241C83.7653 27.4903 84.0699 27.2893 84.3194 27.0348L84.3812 27.3597C84.3914 27.4546 84.4411 27.5419 84.5194 27.6025C84.5976 27.663 84.6981 27.692 84.7989 27.683H85.4492C85.502 27.6877 85.5552 27.6814 85.6051 27.6645C85.655 27.6476 85.7003 27.6206 85.7378 27.5854C85.7754 27.5501 85.8043 27.5075 85.8224 27.4605C85.8405 27.4136 85.8474 27.3634 85.8426 27.3137V22.6784C85.8476 22.6285 85.8409 22.5782 85.8229 22.5311C85.8049 22.4839 85.7761 22.4411 85.7385 22.4057C85.7009 22.3702 85.6555 22.3431 85.6055 22.3261C85.5555 22.3092 85.5021 22.3028 85.4492 22.3076L85.4411 22.3106ZM82.8075 26.4525C81.9362 26.4525 81.3835 25.8856 81.3835 25.006C81.3835 24.1264 81.9606 23.535 82.8075 23.535C83.6805 23.535 84.2332 24.1019 84.2332 24.9815C84.2332 25.861 83.6561 26.4525 82.8075 26.4525Z" fill="white"/>
<path d="M67.8493 24.1741H0.201172V25.6896H67.8493V24.1741Z" fill="url(#paint0_linear_5196_1943)"/>
</g>
<defs>
<linearGradient id="paint0_linear_5196_1943" x1="-0.924947" y1="25.0772" x2="66.7232" y2="25.0772" gradientUnits="userSpaceOnUse">
<stop stop-color="#FBE53B"/>
<stop offset="0.17" stop-color="#FF4F01"/>
<stop offset="0.35" stop-color="#FF14B3"/>
<stop offset="0.55" stop-color="#8000FF"/>
<stop offset="0.8" stop-color="#00C1FF"/>
<stop offset="1" stop-color="#17F036"/>
</linearGradient>
<clipPath id="clip0_5196_1943">
<rect width="110.357" height="30" fill="white"/>
</clipPath>
</defs>
</svg>
