<svg width="18" height="15" viewBox="0 0 18 15" fill="none" xmlns="http://www.w3.org/2000/svg">
<path fill-rule="evenodd" clip-rule="evenodd" d="M5.72727 8.18182C4.20545 8.18182 2.93727 9.22909 2.56909 10.6364H1.63636H0.818182C0.366313 10.6364 0 11.0027 0 11.4545C0 11.9064 0.366313 12.2727 0.818182 12.2727L1.63636 12.2727C1.63678 12.2727 1.63721 12.2727 1.63763 12.2727H2.56909C2.93727 13.68 4.20545 14.7273 5.72727 14.7273C7.24909 14.7273 8.51727 13.68 8.88545 12.2727H16.3624L16.3636 12.2727L17.1818 12.2727C17.6337 12.2727 18 11.9064 18 11.4545C18 11.0027 17.6337 10.6364 17.1818 10.6364H16.3636H8.88545C8.51727 9.22909 7.24909 8.18182 5.72727 8.18182ZM5.72727 13.0909C4.82727 13.0909 4.09091 12.3545 4.09091 11.4545C4.09091 10.5545 4.82727 9.81818 5.72727 9.81818C6.62727 9.81818 7.36364 10.5545 7.36364 11.4545C7.36364 12.3545 6.62727 13.0909 5.72727 13.0909ZM15.4309 2.45455C15.0627 1.04727 13.7945 0 12.2727 0C10.7509 0 9.48273 1.04727 9.11455 2.45455H1.63636H0.818182C0.366313 2.45455 0 2.82086 0 3.27273C0 3.7246 0.366313 4.09091 0.818182 4.09091H1.63636H9.11455C9.48273 5.49818 10.7509 6.54545 12.2727 6.54545C13.7945 6.54545 15.0627 5.49818 15.4309 4.09091H16.3636H17.1818C17.6337 4.09091 18 3.7246 18 3.27273C18 2.82086 17.6337 2.45455 17.1818 2.45455H16.3636H15.4309ZM12.2727 4.90909C11.3727 4.90909 10.6364 4.17273 10.6364 3.27273C10.6364 2.37273 11.3727 1.63636 12.2727 1.63636C13.1727 1.63636 13.9091 2.37273 13.9091 3.27273C13.9091 4.17273 13.1727 4.90909 12.2727 4.90909Z" fill="white"/>
</svg>
