<svg width="33" height="33" viewBox="0 0 33 33" fill="none" xmlns="http://www.w3.org/2000/svg">
<path fill-rule="evenodd" clip-rule="evenodd" d="M16.5 33C25.6127 33 33 25.6127 33 16.5C33 7.3873 25.6127 0 16.5 0C7.3873 0 0 7.3873 0 16.5C0 25.6127 7.3873 33 16.5 33ZM12.4615 25.7716C12.7764 25.9954 13.1558 26.1106 13.5422 26.0999C13.8171 26.0979 14.088 26.0339 14.3346 25.9127C14.5812 25.7915 14.797 25.6162 14.966 25.3999L26.5168 10.8599C27.1425 10.0699 27.0082 8.92392 26.216 8.29992C25.4239 7.67592 24.2749 7.80992 23.6492 8.59992L14.204 20.5199L12.2388 14.6199C11.9099 13.7039 10.9193 13.2059 9.98677 13.4879C9.02219 13.7799 8.47674 14.7979 8.76952 15.7599L11.7976 24.8599C11.9136 25.2278 12.1467 25.5478 12.4615 25.7716Z" fill="white"/>
</svg>
