<svg width="28" height="28" viewBox="0 0 28 28" fill="none" xmlns="http://www.w3.org/2000/svg">
<path d="M14 0C6.272 0 0 6.272 0 14C0 21.728 6.272 28 14 28C21.728 28 28 21.728 28 14C28 6.272 21.728 0 14 0ZM15.974 22.526V25.2H12.236V22.498C9.842 21.994 7.812 20.454 7.658 17.738H10.402C10.542 19.208 11.55 20.356 14.112 20.356C16.856 20.356 17.472 18.984 17.472 18.13C17.472 16.968 16.856 15.876 13.734 15.134C10.262 14.294 7.882 12.866 7.882 9.996C7.882 7.588 9.828 6.02 12.236 5.502V2.8H15.974V5.53C18.578 6.16 19.88 8.134 19.964 10.276H17.22C17.15 8.722 16.324 7.658 14.112 7.658C12.012 7.658 10.752 8.61 10.752 9.954C10.752 11.13 11.662 11.9 14.49 12.628C17.318 13.356 20.342 14.574 20.342 18.102C20.328 20.664 18.41 22.064 15.974 22.526Z" fill="white"/>
</svg>
