<svg width="17" height="20" viewBox="0 0 17 20" fill="none" xmlns="http://www.w3.org/2000/svg">
<path d="M11.6667 0H5C4.08333 0 3.33333 0.75 3.33333 1.66667V15C3.33333 15.9167 4.08333 16.6667 5 16.6667H15C15.9167 16.6667 16.6667 15.9167 16.6667 15V5L11.6667 0ZM15 15H5V1.66667H10.8333V5.33333C10.8333 5.60948 11.0572 5.83333 11.3333 5.83333H15V15ZM0.833333 3.33333C1.29357 3.33333 1.66667 3.70643 1.66667 4.16667V18.3333H14.1667C14.6269 18.3333 15 18.7064 15 19.1667C15 19.6269 14.6269 20 14.1667 20H1.66667C0.75 20 0 19.25 0 18.3333V4.16667C0 3.70643 0.373096 3.33333 0.833333 3.33333ZM7.16667 8.33333C6.89052 8.33333 6.66667 8.55719 6.66667 8.83333V9.5C6.66667 9.77614 6.89052 10 7.16667 10H12.8333C13.1095 10 13.3333 9.77614 13.3333 9.5V8.83333C13.3333 8.55719 13.1095 8.33333 12.8333 8.33333H7.16667ZM7.16667 11.6667C6.89052 11.6667 6.66667 11.8905 6.66667 12.1667V12.8333C6.66667 13.1095 6.89052 13.3333 7.16667 13.3333H10.3333C10.6095 13.3333 10.8333 13.1095 10.8333 12.8333V12.1667C10.8333 11.8905 10.6095 11.6667 10.3333 11.6667H7.16667Z" fill="#515151"/>
</svg>
