<svg width="17" height="20" viewBox="0 0 12 20" fill="none" xmlns="http://www.w3.org/2000/svg">
<path d="M0.298246 14.7743C-0.0234669 14.022 0.663282 13.3333 1.48148 13.3333C1.89058 13.3333 2.21417 13.6816 2.40459 14.0437C2.86046 14.9105 4.11686 15.5556 5.55556 15.5556C7.36667 15.5556 8.88889 14.5333 8.88889 13.3333C8.88889 12.1111 7.73333 11.6667 5.28889 11.0778C2.93333 10.4889 0 9.75556 0 6.66667C0 4.67778 1.63333 2.98889 3.88889 2.42222V1C3.88889 0.447715 4.3366 0 4.88889 0H6.22222C6.77451 0 7.22222 0.447715 7.22222 1V2.42222C8.90616 2.84528 10.2433 3.89383 10.8129 5.22574C11.1346 5.97804 10.4478 6.66667 9.62963 6.66667C9.22053 6.66667 8.89694 6.31838 8.70652 5.9563C8.25065 5.08949 6.99425 4.44444 5.55556 4.44444C3.74444 4.44444 2.22222 5.46667 2.22222 6.66667C2.22222 7.88889 3.37778 8.33333 5.82222 8.92222C8.17778 9.51111 11.1111 10.2444 11.1111 13.3333C11.1111 15.3222 9.47778 17.0111 7.22222 17.5778V19C7.22222 19.5523 6.77451 20 6.22222 20H4.88889C4.3366 20 3.88889 19.5523 3.88889 19V17.5778C2.20495 17.1547 0.867824 16.1062 0.298246 14.7743Z" fill="#515151"/>
</svg>
