<svg width="29" height="26" viewBox="0 0 29 26" fill="none" xmlns="http://www.w3.org/2000/svg">
<path d="M10.6245 5.31295e-05C8.13318 -0.0129015 5.70773 2.34484 6.815 5.27259H2.63636C1.93716 5.27259 1.26659 5.54556 0.772173 6.03145C0.277759 6.51735 0 7.17636 0 7.86351V10.4544C0 10.798 0.138879 11.1275 0.386086 11.3705C0.633294 11.6134 0.968578 11.7499 1.31818 11.7499H13.1818V7.86351H15.8182V11.7499H27.6818C28.0314 11.7499 28.3667 11.6134 28.6139 11.3705C28.8611 11.1275 29 10.798 29 10.4544V7.86351C29 7.17636 28.7222 6.51735 28.2278 6.03145C27.7334 5.54556 27.0628 5.27259 26.3636 5.27259H22.185C23.7273 1.03642 17.9273 -1.9561 15.2514 1.69711L14.5 2.68166L13.7486 1.6712C12.9182 0.518239 11.7714 0.0130078 10.6245 5.31295e-05ZM10.5455 2.68166C11.7186 2.68166 12.3118 4.08076 11.4814 4.8969C10.6509 5.71305 9.22727 5.13009 9.22727 3.97713C9.22727 3.63355 9.36615 3.30404 9.61336 3.06109C9.86057 2.81815 10.1959 2.68166 10.5455 2.68166ZM18.4545 2.68166C19.6277 2.68166 20.2209 4.08076 19.3905 4.8969C18.56 5.71305 17.1364 5.13009 17.1364 3.97713C17.1364 3.63355 17.2752 3.30404 17.5225 3.06109C17.7697 2.81815 18.1049 2.68166 18.4545 2.68166ZM1.31818 13.0454V23.4091C1.31818 24.0962 1.59594 24.7552 2.09035 25.2411C2.58477 25.727 3.25534 26 3.95455 26H25.0455C25.7447 26 26.4152 25.727 26.9096 25.2411C27.4041 24.7552 27.6818 24.0962 27.6818 23.4091V13.0454H15.8182V23.4091H13.1818V13.0454H1.31818Z" fill="white"/>
</svg>
