<svg width="24" height="22" viewBox="0 0 24 22" fill="none" xmlns="http://www.w3.org/2000/svg">
<path d="M3.55519 7.89673V4.13017L3.25098 4.14867V1.8288L6.18549 1.8103V4.09502H5.88128V6.3076L3.55519 7.89673Z" fill="#AB5832"/>
<path d="M11.8926 3.15894L3.46387 11.6059L3.52879 19.4146L20.1767 19.2574L20.2008 10.9325L11.8926 3.15894Z" fill="#FFF3E1"/>
<path d="M3.14844 18.0437L3.73093 17.7237V11.4189L3.18925 11.7797C3.18739 11.7797 3.24861 18.0437 3.14844 18.0437Z" fill="#5F4E47"/>
<path d="M19.8857 11.7593V17.6847L20.4682 18.0048V11.9794L19.8857 11.7593Z" fill="#5F4E47"/>
<path d="M11.9501 4.06162L3.1875 12.2404V10.1776L11.9594 1.8916L20.4679 10.679V12.4198L11.9501 4.06162Z" fill="#BCAA93"/>
<path d="M2.32827 9.82441L1.81445 10.7697L3.19266 10.7494C3.19266 10.7494 11.7902 2.40973 11.9757 2.40233C12.2002 2.39308 20.4638 10.8955 20.4638 10.8955L21.6862 10.877L12.5155 1.0241L11.1688 0.935303L2.32827 9.82441Z" fill="#AB5832"/>
<path d="M0.742692 10.5328C0.598008 10.7085 0.740837 10.801 0.857697 10.801C0.974557 10.801 2.32123 10.7622 2.32123 10.7622L11.6032 1.75464C11.6032 1.75464 11.8166 1.53635 11.9687 1.54375C12.1338 1.55115 12.3471 1.76019 12.3471 1.76019L21.6736 10.8787C21.6736 10.8787 22.7365 10.8824 22.9053 10.8399C23.0889 10.7955 22.9962 10.6216 22.7699 10.3792C22.6029 10.1998 13.1744 0.898106 13.0185 0.737159C12.5548 0.259866 12.3285 -0.0176296 11.8908 0.000870133C11.4511 0.0193698 11.1915 0.343115 10.7518 0.746409C10.622 0.868507 0.803905 10.4588 0.742692 10.5328Z" fill="#ED6C31"/>
<path d="M17.3447 13.796H19.246V12.2179C19.246 12.1482 19.2322 12.0792 19.2055 12.0148C19.1787 11.9504 19.1395 11.8918 19.0901 11.8425C19.0406 11.7932 18.982 11.7541 18.9174 11.7274C18.8528 11.7007 18.7836 11.687 18.7136 11.687H17.3447V13.796Z" fill="#A6CFD5"/>
<path d="M16.7731 13.7962V11.6873H15.2892C15.2193 11.6873 15.1501 11.701 15.0855 11.7277C15.0209 11.7544 14.9622 11.7935 14.9128 11.8428C14.8633 11.8921 14.8241 11.9506 14.7974 12.015C14.7706 12.0794 14.7568 12.1485 14.7568 12.2182V13.7981H16.7731V13.7962Z" fill="#A6CFD5"/>
<path d="M16.7731 14.3955H14.7568V15.8755C14.7568 16.0163 14.8129 16.1513 14.9128 16.2509C15.0126 16.3505 15.148 16.4064 15.2892 16.4064H16.7731V14.3955Z" fill="#A6CFD5"/>
<path d="M17.3447 14.3955V16.4064H18.7136C18.8548 16.4064 18.9902 16.3505 19.0901 16.2509C19.1899 16.1513 19.246 16.0163 19.246 15.8755V14.3955H17.3447Z" fill="#A6CFD5"/>
<path d="M6.81836 13.796H8.71964V12.2179C8.71964 12.1482 8.70587 12.0792 8.67911 12.0148C8.65236 11.9504 8.61315 11.8918 8.56371 11.8425C8.51428 11.7932 8.45559 11.7541 8.391 11.7274C8.32641 11.7007 8.25719 11.687 8.18728 11.687H6.81836V13.796Z" fill="#A6CFD5"/>
<path d="M6.24484 13.7962V11.6873H4.76089C4.69097 11.6873 4.62175 11.701 4.55716 11.7277C4.49257 11.7544 4.43388 11.7935 4.38444 11.8428C4.33501 11.8921 4.29579 11.9506 4.26904 12.015C4.24229 12.0794 4.22852 12.1485 4.22852 12.2182V13.7981H6.24484V13.7962Z" fill="#A6CFD5"/>
<path d="M6.24491 14.3955H4.23047V15.8755C4.23047 16.0163 4.28656 16.1513 4.38639 16.2509C4.48623 16.3505 4.62164 16.4064 4.76283 16.4064H6.24677V14.3955H6.24491Z" fill="#A6CFD5"/>
<path d="M6.81836 14.3955V16.4064H8.18728C8.32847 16.4064 8.46388 16.3505 8.56371 16.2509C8.66355 16.1513 8.71964 16.0163 8.71964 15.8755V14.3955H6.81836Z" fill="#A6CFD5"/>
<path d="M9.33854 18.5876C9.33854 18.5876 9.31071 14.0108 9.33854 12.8546C9.36636 11.7002 10.4533 10.7012 11.7128 10.7437C13.271 10.7974 14.0723 11.6706 14.1298 12.7972C14.1873 13.9238 14.1873 18.6579 14.1873 18.6579L9.33854 18.5876Z" fill="#D27857"/>
<path d="M9.91907 18.8356C9.91907 18.8356 9.89681 13.959 9.91907 13.0563C9.9469 11.937 10.7927 11.3487 11.7758 11.4042C12.9203 11.469 13.4861 12.0758 13.5306 12.9582C13.5751 13.8388 13.5751 18.8393 13.5751 18.8393L9.91907 18.8356Z" fill="#AB5932"/>
<path d="M12.9837 14.8597C12.98 14.0568 12.9726 13.3483 12.9615 13.1318C12.9318 12.5491 12.5163 12.0958 11.7094 12.0681C11.0583 12.0459 10.5223 12.5528 10.5074 13.1503C10.5019 13.3705 10.5037 14.0623 10.5074 14.8504L12.9837 14.8597Z" fill="#D27857"/>
<path d="M10.5127 15.7607C10.5201 16.8356 10.5294 17.8253 10.5294 17.8253L12.9909 17.8327C12.9909 17.8327 12.9909 16.8467 12.9872 15.7718L10.5127 15.7607Z" fill="#D27857"/>
<path d="M12.9908 15.2722C12.9815 15.533 13.0872 15.7439 13.397 15.7439C13.7068 15.7439 13.8199 15.5996 13.8422 15.3203C13.8607 15.0705 13.6882 14.8485 13.397 14.867C13.1076 14.8874 12.9982 15.089 12.9908 15.2722Z" fill="#FFBA02"/>
<path d="M14.7676 20.3597C14.7676 20.3597 16.7857 20.38 18.2437 20.3375C19.7017 20.2949 20.7571 20.3597 20.9741 20.1414C21.1912 19.9249 21.1874 18.0805 20.1765 17.581C19.2472 17.1222 18.6462 17.5884 18.3272 17.6199C17.9061 17.6624 17.3849 17.4016 17.0028 17.3942C15.4242 17.3609 14.8715 18.5985 14.8715 18.5985L14.7676 20.3597Z" fill="#728037"/>
<path d="M2.69636 20.208C2.86516 20.3653 4.15433 20.3708 5.71061 20.3597C7.26689 20.3486 8.51897 20.3634 8.51897 20.3634L8.77866 18.7965L8.46332 18.5356C8.46332 18.5356 8.49856 17.7512 7.50618 17.483C6.81986 17.298 6.22257 17.6032 5.64569 17.6125C5.06881 17.6236 4.53644 17.3628 3.89464 17.5144C3.29736 17.655 2.83177 18.0435 2.64257 18.8279C2.51087 19.3718 2.54426 20.0656 2.69636 20.208Z" fill="#728037"/>
<path d="M8.33301 21.9989L8.34599 20.3617H8.46656L8.46471 18.5376H14.9068L14.8846 20.3617H15.0255V21.9563C15.0237 21.9545 8.33301 22.0081 8.33301 21.9989Z" fill="#B0B0B0"/>
<path d="M15.0236 21.2831V21.9547L8.33105 21.9991L8.33662 21.2776L15.0236 21.2831Z" fill="#9B9B9B"/>
<path d="M8.46289 19.6514L14.8902 19.6532V20.3599H8.46289V19.6514Z" fill="#9B9B9B"/>
</svg>
