<svg width="20" height="20" viewBox="0 0 20 20" fill="none" xmlns="http://www.w3.org/2000/svg">
<path d="M14.2857 1.17143C14.9619 0.390476 15.819 0 16.8571 0C17.7238 0 18.4476 0.314286 19.0476 0.952381C19.6476 1.59048 19.9619 2.31429 20 3.14286C20 3.80952 19.6857 4.58095 19.0476 5.48571C18.4095 6.39048 17.7905 7.14286 17.1714 7.7619C16.6638 8.26171 15.9257 8.96004 14.957 9.85688C14.5775 10.2082 13.9919 10.2103 13.6102 9.86151C12.6262 8.96244 11.8799 8.26257 11.3714 7.7619C10.7524 7.15238 10.1238 6.39048 9.49524 5.48571C8.86667 4.58095 8.57143 3.80952 8.57143 3.14286C8.57143 2.27619 8.87619 1.55238 9.49524 0.952381C10.1143 0.352381 10.8571 0.0380952 11.7238 0C12.7429 0 13.5905 0.390476 14.2857 1.17143ZM20 16.1905V17.1429L12.381 19.5238L5.71429 17.6762V18.0476C5.71429 18.5999 5.26657 19.0476 4.71429 19.0476H1C0.447716 19.0476 0 18.5999 0 18.0476V9.57143C0 9.01914 0.447715 8.57143 1 8.57143H7.40988C7.52931 8.57143 7.64778 8.59282 7.75967 8.6346L13.4571 10.7619C13.9799 10.9591 14.4303 11.3107 14.7484 11.77C15.0665 12.2294 15.2373 12.7746 15.2381 13.3333H17.1429C18.7238 13.3333 20 14.6095 20 16.1905ZM3.80952 17.1429V10.4762H1.90476V17.1429H3.80952ZM18 15.781C17.8476 15.4667 17.5143 15.2381 17.1429 15.2381H12.0476C11.5333 15.2381 11.0286 15.1619 10.5429 15L9.18057 14.5478C8.68105 14.382 8.41045 13.8427 8.57609 13.3431C8.74182 12.8433 9.2814 12.5726 9.78114 12.7385L11.1429 13.1905C11.4286 13.2857 13.3333 13.3333 13.3333 13.3333C13.3333 12.981 13.1143 12.6667 12.7905 12.5429L7.24762 10.4762H5.71429V15.7143L12.3524 17.5333L18 15.781Z" fill="#515151"/>
</svg>
