<svg width="29" height="29" viewBox="0 0 29 29" fill="none" xmlns="http://www.w3.org/2000/svg">
<path d="M0.42233 26.5187L14.2834 12.6696L12.262 10.6211L11.2224 11.6454C11.0889 11.7791 10.9302 11.8852 10.7555 11.9576C10.5808 12.03 10.3936 12.0673 10.2045 12.0673C10.0154 12.0673 9.82816 12.03 9.65349 11.9576C9.47882 11.8852 9.32016 11.7791 9.18658 11.6454L8.16144 10.6211C8.02759 10.4877 7.92139 10.3292 7.84894 10.1546C7.77648 9.98012 7.73919 9.79304 7.73919 9.6041C7.73919 9.41516 7.77648 9.22808 7.84894 9.05357C7.92139 8.87905 8.02759 8.72052 8.16144 8.58706L16.3337 0.421883C16.4673 0.288148 16.6259 0.182047 16.8006 0.109655C16.9753 0.0372627 17.1625 0 17.3516 0C17.5407 0 17.728 0.0372627 17.9026 0.109655C18.0773 0.182047 18.236 0.288148 18.3696 0.421883L19.3947 1.44614C19.9578 2.00875 19.9578 2.9176 19.3947 3.48022L18.3696 4.47562L20.4198 6.53855C20.5534 6.40482 20.7121 6.29872 20.8868 6.22632C21.0614 6.15393 21.2487 6.11667 21.4378 6.11667C21.6269 6.11667 21.8141 6.15393 21.9888 6.22632C22.1634 6.29872 22.3221 6.40482 22.4557 6.53855C23.0188 7.10117 23.0188 8.02444 22.4557 8.58706L24.4915 10.6211L25.5167 9.59689C26.0798 9.03427 27.0039 9.03427 27.567 9.59689L28.5777 10.6211C29.1408 11.1838 29.1408 12.107 28.5777 12.6696L20.4198 20.8204C19.8567 21.383 18.9327 21.383 18.3696 20.8204L17.3589 19.8106C17.2218 19.6775 17.1128 19.5182 17.0384 19.3423C16.9639 19.1664 16.9256 18.9773 16.9256 18.7863C16.9256 18.5953 16.9639 18.4063 17.0384 18.2303C17.1128 18.0544 17.2218 17.8952 17.3589 17.7621L18.3696 16.7378L16.3337 14.7037L2.45818 28.5672C2.3246 28.701 2.16594 28.8071 1.99127 28.8794C1.8166 28.9518 1.62935 28.9891 1.44025 28.9891C1.25115 28.9891 1.06391 28.9518 0.889241 28.8794C0.714572 28.8071 0.555907 28.701 0.42233 28.5672C-0.140777 28.0046 -0.140777 27.0813 0.42233 26.5187ZM25.9787 24.6722C26.7446 24.6722 27.4791 24.9761 28.0206 25.5172C28.5622 26.0583 28.8664 26.7922 28.8664 27.5574V29H14.4278V27.5574C14.4278 26.7922 14.732 26.0583 15.2736 25.5172C15.8152 24.9761 16.5497 24.6722 17.3155 24.6722H25.9787Z" fill="white"/>
</svg>
