<svg width="20" height="20" viewBox="0 0 20 20" fill="none" xmlns="http://www.w3.org/2000/svg">
<path d="M0.999738 11.9942H2.99974V18.9993C2.99974 19.2647 3.1051 19.5192 3.29263 19.7069C3.48017 19.8946 3.73452 20 3.99974 20H15.9997C16.265 20 16.5193 19.8946 16.7068 19.7069C16.8944 19.5192 16.9997 19.2647 16.9997 18.9993V11.9942H18.9997C19.193 11.9944 19.3821 11.9384 19.5442 11.833C19.7063 11.7277 19.8343 11.5775 19.9127 11.4008C19.9917 11.2241 20.0177 11.0283 19.9875 10.8371C19.9573 10.646 19.8723 10.4677 19.7427 10.324L10.7427 0.31673C10.3637 -0.105577 9.63574 -0.105577 9.25674 0.31673L0.256738 10.324C0.127429 10.4678 0.042526 10.6459 0.0123019 10.837C-0.0179222 11.028 0.00782824 11.2238 0.0864374 11.4005C0.165047 11.5772 0.293145 11.7273 0.455233 11.8327C0.617321 11.938 0.806451 11.9941 0.999738 11.9942ZM6.65274 9.63348C7.06897 9.22225 7.63033 8.99166 8.21524 8.99166C8.80014 8.99166 9.36151 9.22225 9.77774 9.63348L10.0017 9.85364L10.2247 9.63348C10.6411 9.22219 11.2027 8.99158 11.7877 8.99158C12.3728 8.99158 12.9343 9.22219 13.3507 9.63348C13.5573 9.83236 13.7217 10.0709 13.8339 10.3349C13.9462 10.5988 14.004 10.8827 14.004 11.1696C14.004 11.4565 13.9462 11.7404 13.8339 12.0043C13.7217 12.2683 13.5573 12.5068 13.3507 12.7057L10.0017 15.9971L6.65274 12.7057C6.44616 12.5068 6.28182 12.2683 6.16956 12.0043C6.05731 11.7404 5.99945 11.4565 5.99945 11.1696C5.99945 10.8827 6.05731 10.5988 6.16956 10.3349C6.28182 10.0709 6.44616 9.83236 6.65274 9.63348Z" fill="#515151"/>
</svg>
