<svg width="17" height="20" viewBox="0 0 20 20" fill="none" xmlns="http://www.w3.org/2000/svg">
<path d="M10 0C8.68678 0 7.38642 0.258658 6.17317 0.761205C4.95991 1.26375 3.85752 2.00035 2.92893 2.92893C1.05357 4.8043 0 7.34784 0 10C0 12.6522 1.05357 15.1957 2.92893 17.0711C3.85752 17.9997 4.95991 18.7362 6.17317 19.2388C7.38642 19.7413 8.68678 20 10 20C12.6522 20 15.1957 18.9464 17.0711 17.0711C18.9464 15.1957 20 12.6522 20 10C20 9.36356 19.9368 8.73014 19.8137 8.10963C19.6718 7.39453 18.8025 7.19754 18.2869 7.71306L18.1848 7.81523C17.9394 8.06058 17.8436 8.41488 17.8994 8.75736C17.9665 9.16936 18 9.58468 18 10C18 12.1217 17.1571 14.1566 15.6569 15.6569C14.1566 17.1571 12.1217 18 10 18C7.87827 18 5.84344 17.1571 4.34315 15.6569C2.84285 14.1566 2 12.1217 2 10C2 7.87827 2.84285 5.84344 4.34315 4.34315C5.84344 2.84285 7.87827 2 10 2C10.4153 2 10.8306 2.03354 11.2426 2.10062C11.5851 2.15638 11.9394 2.06058 12.1848 1.81523L12.2833 1.71665C12.8023 1.19773 12.5991 0.321757 11.8787 0.182093C11.2608 0.0623141 10.6319 0 10 0ZM17 0.724264C17 0.456993 16.6769 0.323143 16.4879 0.512132L13 4V5.5L10.45 8.05C10.3 8 10.15 8 10 8C9.46957 8 8.96086 8.21071 8.58579 8.58579C8.21071 8.96086 8 9.46957 8 10C8 10.5304 8.21071 11.0391 8.58579 11.4142C8.96086 11.7893 9.46957 12 10 12C10.5304 12 11.0391 11.7893 11.4142 11.4142C11.7893 11.0391 12 10.5304 12 10C12 9.85 12 9.7 11.95 9.55L14.5 7H16L19.4879 3.51213C19.6769 3.32314 19.543 3 19.2757 3H17.3C17.1343 3 17 2.86569 17 2.7V0.724264ZM10 5C10 4.44772 9.54921 3.9915 9.00458 4.08312C7.78253 4.28871 6.64516 4.86956 5.75736 5.75736C4.63214 6.88258 4 8.4087 4 10C4 11.5913 4.63214 13.1174 5.75736 14.2426C6.88258 15.3679 8.4087 16 10 16C11.5913 16 13.1174 15.3679 14.2426 14.2426C15.1304 13.3548 15.7113 12.2175 15.9169 10.9954C16.0085 10.4508 15.5523 10 15 10V10C14.4477 10 14.0123 10.4545 13.8757 10.9896C13.6994 11.6797 13.3405 12.3163 12.8284 12.8284C12.0783 13.5786 11.0609 14 10 14C8.93913 14 7.92172 13.5786 7.17157 12.8284C6.42143 12.0783 6 11.0609 6 10C6 8.93913 6.42143 7.92172 7.17157 7.17157C7.68368 6.65947 8.32034 6.30056 9.01035 6.12435C9.54547 5.98769 10 5.55228 10 5V5Z" fill="#515151"/>
</svg>
