<svg width="26" height="24" viewBox="0 0 26 24" fill="none" xmlns="http://www.w3.org/2000/svg">
<path d="M10.2179 19.2926L8.14904 15.224C8.14904 15.224 7.79901 12.9362 8.03236 9.90662C8.23654 7.26349 8.75117 5.40374 10.1283 3.74763C11.1972 2.46347 12.8973 1.16061 14.587 0.549698C16.2767 -0.0612133 16.4517 -0.0903044 16.4517 0.113333C16.4517 0.31697 13.8015 1.51178 11.966 4.06764C10.1304 6.62349 10.2179 9.06506 10.1013 10.663C9.98459 12.2609 10.2179 19.2926 10.2179 19.2926Z" fill="#717F35"/>
<path d="M3.45863 8.48535C4.57121 10.4739 5.62754 14.1872 6.84638 16.9882C7.98188 19.6023 9.16947 21.6179 10.2175 22.6049C11.2655 23.5919 12.2218 23.5046 12.6364 23.1576C13.2593 22.634 12.9322 21.1815 12.9281 20.34C12.9197 18.8355 13.2073 17.7966 13.6573 17.0277C14.0532 16.3524 14.7949 15.6667 15.5804 15.9015C16.5242 16.1841 17.1534 17.115 17.4451 17.5514C17.7368 17.9877 18.1743 18.8584 18.3764 18.8584C18.5785 18.8584 18.2472 16.6121 17.2867 15.2947C16.3367 13.9919 14.972 13.7363 13.7469 14.2682C11.0113 15.4568 10.9342 19.0641 10.9342 19.0641C10.9342 19.0641 9.20072 17.6075 8.00688 13.8028C7.71519 12.8739 6.79846 9.57419 5.88797 8.22769C4.48787 6.15599 2.99193 5.72378 2.14811 5.43287C1.3043 5.14196 0.283394 4.85105 0.254225 5.0256C0.225056 5.20222 2.20645 6.24742 3.45863 8.48535Z" fill="#94A61D"/>
<path d="M11.7885 20.4084C11.7052 19.8307 11.4427 18.3201 11.5468 16.4229C11.6177 15.1034 11.9823 12.9112 13.9866 12.1923C15.5992 11.6146 16.8576 11.6084 18.5744 12.4312C20.1662 13.1938 19.3995 12.1756 18.6515 11.7892C18.1327 11.5211 15.9221 10.4073 13.7324 11.1491C11.1864 12.0115 10.5072 15.0453 10.5072 15.0453C10.5072 15.0453 10.3217 11.7455 11.003 10.1185C11.6843 8.4894 12.9094 7.15745 12.574 7.04732C12.449 7.00576 10.903 7.63537 10.0321 9.62395C9.1029 11.7476 9.06123 13.6655 9.12165 14.7585C9.18207 15.8515 9.33833 16.9258 9.33833 16.9258C9.33833 16.9258 9.7717 17.9294 10.2822 18.5798C10.7551 19.1845 11.8135 20.585 11.7885 20.4084Z" fill="#FFBD13"/>
<path d="M13.4111 4.04688C13.309 4.0261 12.2256 4.44169 11.6797 5.74664C11.1338 7.05158 11.5984 8.12796 11.5984 8.12796C11.5984 8.12796 13.0569 6.86249 13.3298 6.07495C13.6028 5.28533 13.5486 4.07389 13.4111 4.04688Z" fill="#FFBD13"/>
<path d="M16.1408 7.74557C16.1554 7.67908 15.0365 6.73986 14.1761 6.72531C13.3177 6.71077 12.2676 7.44635 12.2676 7.44635C12.2676 7.44635 12.6259 8.30246 13.9865 8.45207C14.9678 8.5622 16.1137 7.86817 16.1408 7.74557Z" fill="#FFBD13"/>
<path d="M13.8216 6.16852C13.9175 6.24956 15.0217 6.12696 15.6614 5.37267C16.3343 4.5789 16.3447 2.78149 16.1406 2.78149C15.8968 2.78149 15.7322 3.03916 15.3092 3.2989C14.8863 3.55656 14.1092 4.31916 13.905 4.90306C13.6987 5.48904 13.7258 6.08748 13.8216 6.16852Z" fill="#FFBD13"/>
<path d="M14.9073 6.29731C14.9302 6.53835 15.7845 7.33419 16.7325 7.37575C17.6804 7.41731 18.518 7.05991 18.518 6.91861C18.518 6.77731 17.9138 5.71965 16.8658 5.61576C15.7324 5.50563 14.8969 6.18718 14.9073 6.29731Z" fill="#FFBD13"/>
<path d="M16.3033 5.27076C16.4158 5.464 17.7201 5.22089 18.3327 4.38556C18.8973 3.61672 18.791 2.74814 18.7306 2.63593C18.6702 2.52373 17.7618 2.61515 17.0367 3.45048C16.4367 4.14244 16.2012 5.09205 16.3033 5.27076Z" fill="#FFBD13"/>
<path d="M17.6592 5.27069C17.653 5.45354 18.1989 6.19744 18.8218 6.48212C19.7594 6.91018 20.9532 6.65459 21.0053 6.49251C21.0553 6.33043 20.4949 5.23328 19.7406 4.90497C18.8531 4.51847 17.6697 4.97562 17.6592 5.27069Z" fill="#FFBD13"/>
<path d="M18.9972 4.43553C18.9972 4.68073 20.4661 4.63917 20.987 4.28384C21.5078 3.92852 22.0474 2.97059 22.1704 2.83968C22.2933 2.70877 22.3141 2.57578 22.0474 2.49474C21.7828 2.4137 20.4765 2.37214 19.7223 2.93318C18.9681 3.49423 18.9972 4.38566 18.9972 4.43553Z" fill="#FFBD13"/>
<path d="M20.6491 4.7617C20.5137 4.83858 20.72 5.09833 20.8221 5.31028C20.9242 5.5243 21.27 6.38873 22.0263 6.76484C22.7493 7.12432 23.7306 7.10147 23.7702 7.04952C23.8119 6.99965 23.5994 5.79028 22.8618 5.23963C21.9638 4.56845 20.9033 4.6204 20.6491 4.7617Z" fill="#FFBD13"/>
<path d="M21.7596 4.2941C21.7846 4.41254 22.7805 4.9341 23.6264 5.00683C24.4723 5.07956 25.3098 4.23384 25.3202 4.14241C25.3307 4.05098 24.5556 3.22604 23.6785 3.25721C22.5263 3.29669 21.7304 4.15072 21.7596 4.2941Z" fill="#FFBD13"/>
<path d="M18.0285 8.79071C18.0118 8.59747 16.4263 8.5663 15.6221 9.40162C14.8158 10.2349 14.7949 11.0286 14.7949 11.0286L15.3762 11.4047C15.3762 11.4047 16.4888 10.9164 17.0888 10.3367C17.7889 9.66136 18.0472 9.02344 18.0285 8.79071Z" fill="#FFBD13"/>
<path d="M16.5843 14.1601C16.8405 14.1705 16.7884 13.0921 16.5426 12.4209C16.2821 11.7082 15.5946 11.2012 15.5946 11.2012L14.7383 11.384C14.7383 11.384 14.757 12.2297 15.1696 12.9633C15.7175 13.9316 16.3488 14.1498 16.5843 14.1601Z" fill="#FFBD13"/>
<path d="M16.824 11.5564C16.824 11.5564 16.7386 12.4271 17.1407 13.2354C17.5595 14.079 18.4762 14.5673 18.6804 14.4863C18.8846 14.4053 18.7825 13.3767 18.6491 12.8884C18.5158 12.4 17.9053 11.6374 17.9053 11.6374L16.824 11.5564Z" fill="#FFBD13"/>
<path d="M16.7119 11.1306C16.7119 11.1306 17.364 10.0729 18.1599 9.74667C19.2954 9.28122 20.7414 9.85888 20.7497 10.0729C20.7601 10.2869 19.7705 11.008 19.2809 11.1929C18.7912 11.3758 17.7912 11.5482 17.7912 11.5482L16.7119 11.1306Z" fill="#FFBD13"/>
<path d="M20.7912 11.1596C19.9244 11.1971 19.0681 11.6895 19.0473 11.9638C19.0265 12.2381 19.7911 12.849 20.862 12.849C21.9329 12.849 22.5955 12.1363 22.5955 12.0345C22.5976 11.9326 21.985 11.1098 20.7912 11.1596Z" fill="#FFBD13"/>
<path d="M19.3034 12.3439C19.0763 12.3023 18.8346 13.4535 19.2221 14.3678C19.6097 15.2841 20.6493 15.7413 20.7327 15.7725C20.9993 15.8722 20.9264 14.2473 20.6097 13.5844C20.3201 12.9818 19.6284 12.4062 19.3034 12.3439Z" fill="#FFBD13"/>
<path d="M20.7912 13.1525C20.7016 13.3083 20.9037 14.3535 21.3725 14.9623C22.1059 15.9182 23.2185 15.9889 23.331 15.939C23.4435 15.8891 23.3102 14.4325 22.5976 13.7426C21.9122 13.0797 20.8725 13.0091 20.7912 13.1525Z" fill="#FFBD13"/>
</svg>
